<svg xmlns="http://www.w3.org/2000/svg" viewBox="0 0 160.05 163.07"><defs><style>.cls-1{fill:#545454;}</style></defs><title>Asset 3</title><g id="Layer_2" data-name="Layer 2"><g id="Layer_1-2" data-name="Layer 1"><path class="cls-1" d="M0,81.66Q0,46,0,10.41A20.84,20.84,0,0,1,.57,6.55c.06-.33.53-.56.74-.87.67-1,1.09-2.39,2-2.9C4.8,2,6,.84,7.89.47,11.74-.3,15.56.11,19.38.1Q84.25,0,149.12.1c2,0,4,.12,5.65,1.68.65.6,1.95.72,2.42,1.64.81,1.59,2,2.87,2.44,4.82.63,3,.35,6,.36,9q.07,67.68,0,135.36a15.5,15.5,0,0,1-.57,3.83c-.14.55-.79,1-1.16,1.48-.62.86-1.18,1.77-1.84,2.59a2.89,2.89,0,0,1-1.05.57c-.1,0-.32,0-.36,0-.87,1.44-2.47,1.35-3.8,1.83a4,4,0,0,1-1.34.14H77.14c-22.33,0-44.66,0-67-.06-1.69,0-3.64,0-5-1.62-.56-.65-1.84-.76-2.25-1.44-.9-1.53-2.07-2.85-2.48-4.8-.61-3-.35-5.92-.36-8.87C0,124.74,0,103.2,0,81.66ZM117,46v.08h-8.12c-.33,0-.78-.06-1,.13-.95.94-2.21,1-3.38,1.34a10.23,10.23,0,0,0-2,.85A18.13,18.13,0,0,1,99.86,50a11.68,11.68,0,0,0-3.94,2.06c-.75.63-1.79.92-2.52,1.57-1.33,1.16-2.53,2.46-3.77,3.71-.7.71-1.87,1.37-2,2.17-.24,1.88-2.52,2.48-2.46,4.41,0,.06-.22.1-.28.19a7.6,7.6,0,0,0-.87,1.44c-.66,1.81-1.33,3.63-1.86,5.48a28.26,28.26,0,0,0-1.12,5.21,43.22,43.22,0,0,0,0,7c.17,2.17-.67,4.43.83,6.54.61.86.56,2.26.64,3.43A6.44,6.44,0,0,0,83.78,97,14.93,14.93,0,0,1,85,99.47a17.76,17.76,0,0,0,2.15,3.8c2.56,2.79,5.28,5.44,8,8a12.25,12.25,0,0,0,3,1.75c1,.48,2,.74,2.93,1.28a12.58,12.58,0,0,0,5.32,1.78,12.15,12.15,0,0,1,1.68.29c.81.2,1.6.51,2.41.65s2-.17,2.27.21c.63,1.08,1.49.66,2.26.69,1.58.06,3.17.07,4.75,0,.84,0,1.94.54,2.43-.75,0-.08.31-.06.47-.08,2.23-.24,4.54.35,6.67-1a17.19,17.19,0,0,1,4.39-1.81,12.1,12.1,0,0,0,2.39-1.19c.94-.51,2.18-.64,2.93-1.33a53.16,53.16,0,0,1,4.82-3.72,20.45,20.45,0,0,0,3.28-3.17,1.62,1.62,0,0,0-.08-1.58c-2.53-2.65-5.16-5.21-7.74-7.81-.74-.74-1.34-.58-2,.13a26.49,26.49,0,0,1-2.56,2.53c-.89.73-2,1.18-2.83,2a7.6,7.6,0,0,1-2.26,1.2A28.46,28.46,0,0,1,127,103a14.38,14.38,0,0,1-4.38,1,59.26,59.26,0,0,1-6.26.13,35.8,35.8,0,0,1-6.74-.95,22.12,22.12,0,0,1-6.88-3.49,21.43,21.43,0,0,1-6.11-7,.35.35,0,0,1,0-.12c-.38-2.3-1.81-4.35-1.64-6.79,0-.22-.21-.47-.33-.7s-.52-.64-.5-.93c.21-2.88-.52-5.78.85-8.66,1.16-2.45,1.65-5.21,3.68-7.22.14-.14.37-.34.35-.49-.13-1.07.72-1.52,1.3-2.13A14.07,14.07,0,0,1,102,64a25.78,25.78,0,0,1,3-1.9,23.41,23.41,0,0,1,3.86-1.89,20.26,20.26,0,0,1,5-1.09c2.74-.17,5.49-.05,8.24,0a4.13,4.13,0,0,1,1.15.32c1.18.38,2.37.74,3.54,1.17,1.45.53,3.11.83,4.26,1.76,2,1.63,4.51,2.71,6.06,4.91a1.9,1.9,0,0,0,.53.52,1.2,1.2,0,0,0,1.79-.15c1.85-2,3.8-3.88,5.75-5.76a3.62,3.62,0,0,1,1.45-.77c1-.31,1.69-1.42,1.16-2.11-2.28-3-5.62-4.75-8.28-7.29a.43.43,0,0,0-.11-.06c-1.92-.95-3.83-1.91-5.77-2.82a26.26,26.26,0,0,0-3.08-1.22c-.88-.28-1.81-.41-2.71-.62a22.9,22.9,0,0,0-3.74-.85C121.71,46,119.33,46,117,46ZM43.67,95.42c-1.58-.25-1.7-1.2-1.65-2.29a2.77,2.77,0,0,0-.2-1.08c-.58-1.52-1.23-3-1.8-4.53-.42-1.13-.73-2.31-1.16-3.44C38.28,82.53,37.62,81,37,79.45a41.24,41.24,0,0,1-1.85-5.23c-.3-1.3-1.62-2.25-1.21-3.77.05-.19-.27-.48-.42-.71-.48-.77-1.29-1.49-1.39-2.3-.27-2.24-1.39-4.16-2-6.25-.62-2.3-2.17-4.27-2.21-6.73a1,1,0,0,0-.11-.35c-.46-1.1-.93-2.2-1.39-3.31-.23-.56-.31-1.51-.67-1.63-1-.34-.68-1.09-.77-1.71-.06-.44-.08-.88-.11-1.34H10a8.82,8.82,0,0,0,.28,1.28c.57,1.45,1.2,2.88,1.75,4.34.45,1.2.79,2.45,1.24,3.66.38,1,.83,2,1.27,3a14.65,14.65,0,0,1,1.73,4.92c.11,1.38,1.41,2.63,1.65,4,.42,2.37,2.18,4.27,2.16,6.75,0,.14.18.27.24.42.41.91.86,1.81,1.19,2.75.59,1.67.85,3.52,1.72,5s.93,3.2,1.76,4.68a25.19,25.19,0,0,1,1.21,3.41c.58,1.52,1.23,3,1.81,4.52.43,1.13.72,2.31,1.17,3.44.56,1.4,1.51,2.71,1.75,4.14.39,2.36,2.58,4.09,2.17,6.68,0,.15.25.32.33.5a14,14,0,0,1,.59,1.55,9.71,9.71,0,0,0,.15,1.09c.68,1.58,1.42,3.13,2.21,4.86,4.25,0,8.66,0,13.06,0A1.71,1.71,0,0,0,51,115.31a4.39,4.39,0,0,1,.27-1.44A34.49,34.49,0,0,0,54,106.17a.59.59,0,0,1,.13-.34c.83-.64.78-1.54.92-2.46a10,10,0,0,1,.94-2.23c.3-.7.57-1.42.87-2.12s.79-1.58,1.08-2.41c.65-1.82,1.2-3.68,1.86-5.5.31-.86.8-1.66,1.14-2.51a26.07,26.07,0,0,0,1-3c.26-1,.1-1.89.88-2.92C64,81.24,64.36,79.17,65,77.34c.48-1.29.92-2.6,1.41-3.88S67.52,71,68,69.69c.67-1.86,1.23-3.75,1.9-5.61.28-.79,1-1.5,1-2.28a10.12,10.12,0,0,1,1-3.11c.4-.94.24-2,1-3a26.12,26.12,0,0,0,2.42-6c.39-1.11.59-2.29.92-3.64-4.89,0-9.42,0-14,0a1,1,0,0,0-.71.55q-1.12,2.93-2.14,5.9c-.83,2.4-1.63,4.81-2.45,7.22-.06.19-.21.35-.29.53-.39.87-.85,1.73-1.16,2.63C55,64.56,54.46,66.27,53.93,68c0,0-.06.06-.07.1a19.86,19.86,0,0,0-1.76,4.2c-.42,2.34-2,4.23-2.23,6.65-.15,1.41-1.13,2.72-1.67,4.11A24.73,24.73,0,0,1,47,86.41a8.24,8.24,0,0,0-1.07,4.32.26.26,0,0,1-.15.18c-1.05.35-1,1.36-1.24,2.15S43.94,94.65,43.67,95.42Zm70.68-18.33a9.46,9.46,0,0,1-.67,1.16,12.75,12.75,0,0,1-1,1c-.67.69-1.12,3.36-.51,4.06A5.17,5.17,0,0,0,114.49,85a8.6,8.6,0,0,0,3.71,0c.67-.14,1.66-.93,1.71-1.5.17-1.75.76-3.77-1-5.11-.72-.56-1.29-1.62-2.57-1.33A9,9,0,0,1,114.36,77.09Zm32.48,8c.16-.52.15-1.06.41-1.26a2.41,2.41,0,0,0,.74-2.61A13.26,13.26,0,0,0,147,79a3.09,3.09,0,0,0-2.6-2,3.36,3.36,0,0,0-3.15,1.12c-.58.67-1.4,1.27-1.37,2.55a7.09,7.09,0,0,0,1.43,4.33Zm-14,0c.19-.56.2-1.08.46-1.3.74-.63.67-1.42.79-2.24.16-1.11-.64-1.72-1-2.54-.5-1.05-1.14-1.93-2.42-1.83-1,.07-2-.37-2.9.85A7.24,7.24,0,0,0,126,81.29c-.23,1.53.75,2.51,1.31,3.75Z"/></g></g></svg>