<svg xmlns="http://www.w3.org/2000/svg" viewBox="0 0 78.21 40.8"><defs><style>.cls-1{fill:#0ddef6;}.cls-2{fill:#9ed350;}</style></defs><title>icoFinal</title><g id="Layer_2" data-name="Layer 2"><g id="Layer_1-2" data-name="Layer 1"><path class="cls-1" d="M60.59,0c1.34,0,2.69-.06,4,0a13,13,0,0,1,2.12.48c.51.12,1,.19,1.53.35A14.87,14.87,0,0,1,70,1.57c1.1.52,2.18,1.06,3.27,1.6l.06,0c1.51,1.44,3.4,2.45,4.69,4.13.3.39-.08,1-.66,1.19a2.05,2.05,0,0,0-.82.44c-1.11,1.07-2.21,2.14-3.26,3.26a.68.68,0,0,1-1,.09A1.08,1.08,0,0,1,72,12c-.88-1.25-2.29-1.86-3.43-2.78a8.47,8.47,0,0,0-2.42-1c-.66-.24-1.33-.44-2-.66a2.34,2.34,0,0,0-.65-.18c-1.56,0-3.12-.09-4.67,0A11.48,11.48,0,0,0,56,8,13.26,13.26,0,0,0,53.8,9.11a14.6,14.6,0,0,0-1.67,1.07,8,8,0,0,0-1,1c-.33.35-.81.6-.74,1.21,0,.08-.12.19-.2.28-1.15,1.14-1.42,2.7-2.08,4.09-.77,1.63-.36,3.27-.48,4.9,0,.17.19.35.28.53s.2.27.19.4c-.1,1.38.71,2.54.93,3.85a.2.2,0,0,0,0,.07,12.14,12.14,0,0,0,3.46,3.94,12.53,12.53,0,0,0,3.89,2,20.28,20.28,0,0,0,3.82.54,33.56,33.56,0,0,0,3.54-.08,8.15,8.15,0,0,0,2.48-.57,16.12,16.12,0,0,0,1.55-.94,4.31,4.31,0,0,0,1.28-.68c.46-.45,1.1-.7,1.6-1.12a15,15,0,0,0,1.45-1.43c.37-.4.72-.49,1.13-.07,1.46,1.47,3,2.92,4.39,4.42a.92.92,0,0,1,0,.89,11.58,11.58,0,0,1-1.86,1.79,30.11,30.11,0,0,0-2.73,2.11c-.42.39-1.12.46-1.66.75a6.86,6.86,0,0,1-1.35.67,9.73,9.73,0,0,0-2.48,1c-1.21.77-2.52.44-3.78.57-.09,0-.25,0-.27,0-.28.73-.9.4-1.38.42-.89,0-1.79,0-2.69,0-.43,0-.92.22-1.28-.39-.12-.21-.85,0-1.28-.12S56,40,55.57,39.87a6.88,6.88,0,0,0-1-.16,7.13,7.13,0,0,1-3-1c-.51-.31-1.12-.45-1.66-.72a6.94,6.94,0,0,1-1.68-1c-1.56-1.47-3.1-3-4.55-4.56a10.06,10.06,0,0,1-1.22-2.15,8.46,8.46,0,0,0-.7-1.38,3.65,3.65,0,0,1-.73-2.17,4,4,0,0,0-.36-1.94c-.85-1.2-.38-2.48-.47-3.71a24.48,24.48,0,0,1,0-4,16,16,0,0,1,.64-3c.3-1.05.68-2.08,1.05-3.11a4.3,4.3,0,0,1,.49-.81c0-.05.16-.08.16-.11,0-1.09,1.25-1.43,1.39-2.5.06-.45.72-.83,1.12-1.23.7-.71,1.38-1.45,2.14-2.1.42-.36,1-.53,1.43-.89a6.61,6.61,0,0,1,2.23-1.17,10.27,10.27,0,0,0,1.51-.87A5.79,5.79,0,0,1,53.54.9,4,4,0,0,0,55.45.14c.1-.1.36-.07.54-.07h4.6Z"/><path class="cls-2" d="M19.08,28c.15-.43.32-.88.48-1.33s.11-1,.7-1.22a.14.14,0,0,0,.08-.1,4.67,4.67,0,0,1,.6-2.45A14,14,0,0,0,21.64,21a9.85,9.85,0,0,0,.95-2.33c.14-1.37,1-2.44,1.27-3.77a11.25,11.25,0,0,1,1-2.38s0,0,0-.06c.3-1,.58-1.93.91-2.88.18-.51.43-1,.66-1.49,0-.1.13-.2.16-.3C27.09,6.39,27.54,5,28,3.67Q28.59,2,29.22.33a.56.56,0,0,1,.4-.31c2.57,0,5.13,0,7.9,0-.19.76-.3,1.43-.52,2.06a14.8,14.8,0,0,1-1.37,3.4c-.4.6-.31,1.17-.54,1.71a5.73,5.73,0,0,0-.58,1.76c0,.44-.42.85-.58,1.29-.38,1.05-.7,2.13-1.08,3.18-.26.72-.59,1.42-.87,2.14s-.53,1.47-.8,2.2a11.79,11.79,0,0,1-1.22,3,3.67,3.67,0,0,0-.5,1.66,14.77,14.77,0,0,1-.57,1.68c-.19.48-.47.93-.64,1.42-.37,1-.68,2.08-1.05,3.12-.17.47-.41.91-.61,1.36s-.32.8-.49,1.2a5.69,5.69,0,0,0-.53,1.26c-.08.52-.05,1-.52,1.39a.34.34,0,0,0-.08.19,19.54,19.54,0,0,1-1.56,4.36,2.49,2.49,0,0,0-.15.82,1,1,0,0,1-.9,1c-2.5,0-5,0-7.4,0-.45-1-.86-1.86-1.25-2.75a5.5,5.5,0,0,1-.09-.62,7.91,7.91,0,0,0-.33-.88c0-.1-.2-.2-.19-.28.23-1.46-1-2.44-1.23-3.78a12.41,12.41,0,0,0-1-2.35c-.25-.64-.42-1.31-.66-1.95-.32-.86-.7-1.7-1-2.56a14.27,14.27,0,0,0-.69-1.93c-.47-.84-.5-1.8-1-2.65a16.32,16.32,0,0,1-1-2.84c-.19-.53-.45-1-.68-1.56,0-.08-.14-.16-.14-.24,0-1.41-1-2.48-1.22-3.83-.14-.79-.87-1.5-.94-2.28A8.3,8.3,0,0,0,2.58,7c-.25-.56-.51-1.11-.72-1.68s-.45-1.39-.7-2.07S.48,1.6.16.78A5,5,0,0,1,0,.05H8.47c0,.26,0,.51.06.76s-.15.78.43,1c.21.07.25.6.38.92.26.63.52,1.25.79,1.87a.58.58,0,0,1,.06.2c0,1.39.9,2.51,1.25,3.81a25.3,25.3,0,0,1,1.11,3.54c.06.46.51.87.79,1.3.09.14.27.3.24.4-.24.86.51,1.4.68,2.14a23.36,23.36,0,0,0,1.05,3c.34.88.71,1.74,1,2.62.24.64.42,1.31.66,1.95.32.86.69,1.71,1,2.56a1.57,1.57,0,0,1,.11.61C18.12,27.3,18.19,27.84,19.08,28Z"/><path class="cls-2" d="M59.12,17.6a5.11,5.11,0,0,0,1.15,0c.72-.17,1,.43,1.45.75,1,.76.65,1.9.55,2.9,0,.32-.59.77-1,.85a4.87,4.87,0,0,1-2.1,0,2.93,2.93,0,0,1-1.29-1,2.61,2.61,0,0,1,.29-2.3,7.22,7.22,0,0,0,.55-.55A5.36,5.36,0,0,0,59.12,17.6Z"/><path class="cls-2" d="M77.52,22.11H74.41a4,4,0,0,1-.81-2.45c0-.73.45-1.06.78-1.44a1.9,1.9,0,0,1,1.79-.63,1.75,1.75,0,0,1,1.47,1.11,7.51,7.51,0,0,1,.53,1.23,1.37,1.37,0,0,1-.42,1.48C77.6,21.51,77.6,21.82,77.52,22.11Z"/><path class="cls-2" d="M69.58,22.1H66.44c-.32-.7-.87-1.25-.74-2.12a4.1,4.1,0,0,1,1-1.88c.51-.69,1.08-.44,1.64-.48.73-.05,1.09.44,1.37,1s.67.81.58,1.44c-.07.47,0,.92-.45,1.27C69.69,21.49,69.69,21.79,69.58,22.1Z"/></g></g></svg>