<svg xmlns="http://www.w3.org/2000/svg" viewBox="0 0 138.09 72.03"><defs><style>.cls-1{fill:#0ddef6;}.cls-2{fill:#9ed350;}</style></defs><title>iconFinal</title><g id="Layer_2" data-name="Layer 2"><g id="Layer_1-2" data-name="Layer 1"><path class="cls-1" d="M107,0c2.37,0,4.75-.1,7.12,0a22.9,22.9,0,0,1,3.74.85c.9.21,1.83.34,2.71.62a26.26,26.26,0,0,1,3.08,1.22c1.94.91,3.85,1.88,5.77,2.82a.43.43,0,0,1,.11.06c2.67,2.54,6,4.32,8.28,7.29.53.69-.14,1.8-1.16,2.11a3.62,3.62,0,0,0-1.45.77c-2,1.89-3.9,3.78-5.75,5.76a1.2,1.2,0,0,1-1.79.15,1.9,1.9,0,0,1-.53-.52c-1.55-2.2-4-3.29-6.06-4.91-1.15-.92-2.81-1.23-4.26-1.76-1.16-.43-2.35-.78-3.54-1.17a4.13,4.13,0,0,0-1.15-.32c-2.75,0-5.5-.15-8.24,0a20.26,20.26,0,0,0-5,1.09A23.41,23.41,0,0,0,95,16.08,25.78,25.78,0,0,0,92,18a14.07,14.07,0,0,0-1.74,1.71c-.58.61-1.42,1.07-1.3,2.13,0,.15-.21.34-.35.49-2,2-2.52,4.77-3.68,7.22-1.36,2.87-.64,5.77-.85,8.66,0,.3.33.62.5.93s.35.48.33.7c-.17,2.44,1.26,4.49,1.64,6.79a.35.35,0,0,0,0,.12,21.43,21.43,0,0,0,6.11,7,22.12,22.12,0,0,0,6.88,3.49,35.8,35.8,0,0,0,6.74.95,59.26,59.26,0,0,0,6.26-.13A14.38,14.38,0,0,0,117,57a28.46,28.46,0,0,0,2.74-1.66,7.6,7.6,0,0,0,2.26-1.2c.81-.79,1.94-1.24,2.83-2a26.49,26.49,0,0,0,2.56-2.53c.66-.71,1.27-.87,2-.13,2.59,2.6,5.21,5.16,7.74,7.81a1.62,1.62,0,0,1,.08,1.58,20.45,20.45,0,0,1-3.28,3.17,53.16,53.16,0,0,0-4.82,3.72c-.75.69-2,.82-2.93,1.33a12.1,12.1,0,0,1-2.39,1.19,17.19,17.19,0,0,0-4.39,1.81c-2.13,1.36-4.44.77-6.67,1-.16,0-.44,0-.47.08-.5,1.28-1.59.7-2.43.75-1.58.08-3.17.07-4.75,0-.77,0-1.63.39-2.26-.69-.22-.38-1.49-.08-2.27-.21s-1.6-.45-2.41-.65a12.15,12.15,0,0,0-1.68-.29,12.58,12.58,0,0,1-5.32-1.78c-.91-.54-2-.8-2.93-1.28a12.25,12.25,0,0,1-3-1.75c-2.76-2.6-5.47-5.26-8-8A17.76,17.76,0,0,1,75,53.45,14.93,14.93,0,0,0,73.81,51a6.44,6.44,0,0,1-1.29-3.83c-.08-1.17,0-2.56-.64-3.43-1.5-2.11-.67-4.37-.83-6.54a43.22,43.22,0,0,1,0-7A28.26,28.26,0,0,1,72.21,25c.53-1.85,1.2-3.67,1.86-5.48a7.6,7.6,0,0,1,.87-1.44c.06-.09.29-.13.28-.19-.06-1.93,2.22-2.53,2.46-4.41.1-.8,1.27-1.46,2-2.17,1.24-1.25,2.44-2.55,3.77-3.71C84.16,7,85.19,6.67,85.95,6A11.68,11.68,0,0,1,89.88,4a18.13,18.13,0,0,0,2.67-1.54,10.23,10.23,0,0,1,2-.85c1.17-.34,2.43-.4,3.38-1.34.18-.18.63-.13,1-.13H107Z"/><path class="cls-2" d="M33.69,49.4c.27-.76.56-1.55.84-2.35s.19-1.8,1.24-2.15a.26.26,0,0,0,.15-.18A8.24,8.24,0,0,1,37,40.4,24.73,24.73,0,0,0,38.21,37c.54-1.38,1.52-2.7,1.67-4.11.25-2.42,1.82-4.3,2.23-6.65A19.86,19.86,0,0,1,43.87,22s.06-.06.07-.1c.53-1.7,1-3.41,1.61-5.09.31-.9.76-1.76,1.16-2.63.08-.18.23-.34.29-.53.82-2.4,1.61-4.82,2.45-7.22q1-3,2.14-5.9A1,1,0,0,1,52.3,0c4.53,0,9.06,0,14,0-.33,1.35-.54,2.53-.92,3.64a26.12,26.12,0,0,1-2.42,6c-.71,1.06-.55,2.07-1,3a10.12,10.12,0,0,0-1,3.11c-.07.78-.75,1.49-1,2.28-.67,1.86-1.23,3.75-1.9,5.61-.46,1.28-1.05,2.51-1.54,3.78s-.93,2.59-1.41,3.88c-.68,1.83-1,3.89-2.16,5.38-.78,1-.63,1.94-.88,2.92a26.07,26.07,0,0,1-1,3c-.34.85-.83,1.65-1.14,2.51-.65,1.82-1.21,3.68-1.86,5.5-.29.83-.73,1.6-1.08,2.41s-.57,1.42-.87,2.12a10,10,0,0,0-.94,2.23c-.14.91-.09,1.82-.92,2.46a.59.59,0,0,0-.13.34,34.49,34.49,0,0,1-2.76,7.69A4.39,4.39,0,0,0,41,69.3a1.71,1.71,0,0,1-1.58,1.77c-4.41.08-8.82,0-13.06,0-.79-1.72-1.52-3.28-2.21-4.86A9.71,9.71,0,0,1,24,65.15a14,14,0,0,0-.59-1.55c-.08-.18-.36-.36-.33-.5.41-2.58-1.78-4.32-2.17-6.68-.24-1.44-1.2-2.75-1.75-4.14-.45-1.12-.74-2.3-1.17-3.44-.57-1.52-1.23-3-1.81-4.52A25.19,25.19,0,0,0,15,40.91c-.83-1.48-.88-3.19-1.76-4.68s-1.13-3.34-1.72-5c-.33-.94-.79-1.83-1.19-2.75-.07-.15-.25-.28-.24-.42,0-2.48-1.74-4.38-2.16-6.75-.25-1.4-1.54-2.65-1.65-4a14.65,14.65,0,0,0-1.73-4.92c-.44-1-.9-2-1.27-3C2.83,8.17,2.49,6.92,2,5.71,1.49,4.25.85,2.82.28,1.37A8.82,8.82,0,0,1,0,.1H15c0,.46,0,.9.11,1.34.09.62-.27,1.37.77,1.71.36.12.44,1.07.67,1.63C17,5.89,17.44,7,17.9,8.09a1,1,0,0,1,.11.35c0,2.46,1.59,4.44,2.21,6.73.56,2.09,1.68,4,2,6.25.1.81.91,1.54,1.39,2.3.15.24.47.53.42.71-.42,1.52.91,2.47,1.21,3.77A41.24,41.24,0,0,0,27,33.44c.59,1.55,1.26,3.08,1.84,4.63.43,1.13.74,2.31,1.16,3.44.57,1.52,1.21,3,1.8,4.53a2.77,2.77,0,0,1,.2,1.08C32,48.2,32.11,49.15,33.69,49.4Z"/><path class="cls-2" d="M104.38,31.08a9,9,0,0,0,2,0c1.28-.29,1.84.77,2.57,1.33,1.73,1.34,1.14,3.36,1,5.11-.06.57-1,1.36-1.71,1.5a8.6,8.6,0,0,1-3.71,0,5.17,5.17,0,0,1-2.27-1.73c-.61-.69-.17-3.37.51-4.06a12.75,12.75,0,0,0,1-1A9.46,9.46,0,0,0,104.38,31.08Z"/><path class="cls-2" d="M136.85,39h-5.49a7.09,7.09,0,0,1-1.43-4.33c0-1.28.79-1.88,1.37-2.55A3.36,3.36,0,0,1,134.46,31a3.09,3.09,0,0,1,2.6,2,13.26,13.26,0,0,1,.93,2.17,2.41,2.41,0,0,1-.74,2.61C137,38,137,38.52,136.85,39Z"/><path class="cls-2" d="M122.85,39h-5.55c-.57-1.24-1.54-2.21-1.31-3.75A7.24,7.24,0,0,1,117.75,32c.91-1.22,1.91-.78,2.9-.85,1.28-.09,1.93.78,2.42,1.83.39.83,1.18,1.43,1,2.54-.12.83-.05,1.62-.79,2.24C123,37.95,123,38.46,122.85,39Z"/></g></g></svg>