<svg xmlns="http://www.w3.org/2000/svg" viewBox="0 0 192 192"><defs><style>.cls-1{fill:none;}.cls-2{fill:#545454;}.cls-3{fill:#0ddef6;}.cls-4{fill:#9ed350;}</style></defs><title>Notification</title><g id="Layer_2" data-name="Layer 2"><g id="Layer_1-2" data-name="Layer 1"><path class="cls-1" d="M0,192V0H192V192ZM16,99.59c0,21.54,0,43.08,0,64.62,0,2.94-.26,5.88.36,8.87.4,1.95,1.57,3.27,2.48,4.8.4.68,1.69.79,2.25,1.44,1.38,1.6,3.33,1.61,5,1.62,22.33.1,44.66.06,67,.06h72.74a4,4,0,0,0,1.34-.14c1.32-.47,2.93-.39,3.8-1.83,0-.06.26,0,.36,0a2.89,2.89,0,0,0,1.05-.57c.66-.83,1.21-1.74,1.84-2.59.37-.51,1-.92,1.16-1.48a15.5,15.5,0,0,0,.57-3.83q0-67.68,0-135.36c0-3,.28-6-.36-9-.41-1.95-1.63-3.23-2.44-4.82-.47-.92-1.77-1-2.42-1.64-1.68-1.55-3.68-1.68-5.65-1.68Q100.23,18,35.36,18c-3.82,0-7.64-.4-11.49.37-1.85.37-3.09,1.51-4.56,2.31-.92.5-1.34,1.91-2,2.9-.22.32-.68.55-.74.87A20.84,20.84,0,0,0,16,28.35Q16,64,16,99.59Z"/><path class="cls-2" d="M16,99.59Q16,64,16,28.35a20.84,20.84,0,0,1,.53-3.86c.06-.33.53-.56.74-.87.67-1,1.09-2.39,2-2.9,1.47-.8,2.72-1.95,4.56-2.31,3.85-.77,7.67-.36,11.49-.37Q100.23,18,165.1,18c2,0,4,.12,5.65,1.68.65.6,1.95.72,2.42,1.64.81,1.59,2,2.87,2.44,4.82.63,3,.35,6,.36,9q.07,67.68,0,135.36a15.5,15.5,0,0,1-.57,3.83c-.14.55-.79,1-1.16,1.48-.62.86-1.18,1.77-1.84,2.59a2.89,2.89,0,0,1-1.05.57c-.1,0-.32,0-.36,0-.87,1.44-2.47,1.35-3.8,1.83a4,4,0,0,1-1.34.14H93.13c-22.33,0-44.66,0-67-.06-1.69,0-3.64,0-5-1.62-.56-.65-1.84-.76-2.25-1.44-.9-1.53-2.07-2.85-2.48-4.8-.61-3-.35-5.92-.36-8.87C16,142.67,16,121.13,16,99.59ZM132.94,64v.08h-8.12c-.33,0-.78-.06-1,.13-.95.94-2.21,1-3.38,1.34a10.23,10.23,0,0,0-2,.85,18.13,18.13,0,0,1-2.67,1.54A11.68,11.68,0,0,0,111.91,70c-.75.63-1.79.92-2.52,1.57-1.33,1.16-2.53,2.46-3.77,3.71-.7.71-1.87,1.37-2,2.17-.24,1.88-2.52,2.48-2.46,4.41,0,.06-.22.1-.28.19a7.6,7.6,0,0,0-.87,1.44c-.66,1.81-1.33,3.63-1.86,5.48A28.26,28.26,0,0,0,97,94.17a43.22,43.22,0,0,0,0,7c.17,2.17-.67,4.43.83,6.54.61.86.56,2.26.64,3.43A6.44,6.44,0,0,0,99.77,115,14.93,14.93,0,0,1,101,117.4a17.76,17.76,0,0,0,2.15,3.8c2.56,2.79,5.28,5.44,8,8a12.25,12.25,0,0,0,3,1.75c1,.48,2,.74,2.93,1.28a12.58,12.58,0,0,0,5.32,1.78,12.15,12.15,0,0,1,1.68.29c.81.2,1.6.51,2.41.65s2-.17,2.27.21c.63,1.08,1.49.66,2.26.69,1.58.06,3.17.07,4.75,0,.84,0,1.94.54,2.43-.75,0-.08.31-.06.47-.08,2.23-.24,4.54.35,6.67-1a17.19,17.19,0,0,1,4.39-1.81,12.1,12.1,0,0,0,2.39-1.19c.94-.51,2.18-.64,2.93-1.33a53.16,53.16,0,0,1,4.82-3.72,20.45,20.45,0,0,0,3.28-3.17,1.62,1.62,0,0,0-.08-1.58c-2.53-2.65-5.16-5.21-7.74-7.81-.74-.74-1.34-.58-2,.13a26.49,26.49,0,0,1-2.56,2.53c-.89.73-2,1.18-2.83,2a7.6,7.6,0,0,1-2.26,1.2,28.46,28.46,0,0,1-2.74,1.66,14.38,14.38,0,0,1-4.38,1,59.26,59.26,0,0,1-6.26.13,35.8,35.8,0,0,1-6.74-.95,22.12,22.12,0,0,1-6.88-3.49,21.43,21.43,0,0,1-6.11-7,.35.35,0,0,1,0-.12c-.38-2.3-1.81-4.35-1.64-6.79,0-.22-.21-.47-.33-.7s-.52-.64-.5-.93c.21-2.88-.52-5.78.85-8.66,1.16-2.45,1.65-5.21,3.68-7.22.14-.14.37-.34.35-.49-.13-1.07.72-1.52,1.3-2.13A14.07,14.07,0,0,1,118,81.93a25.78,25.78,0,0,1,3-1.9,23.41,23.41,0,0,1,3.86-1.89,20.26,20.26,0,0,1,5-1.09c2.74-.17,5.49-.05,8.24,0a4.13,4.13,0,0,1,1.15.32c1.18.38,2.37.74,3.54,1.17,1.45.53,3.11.83,4.26,1.76,2,1.63,4.51,2.71,6.06,4.91a1.9,1.9,0,0,0,.53.52,1.2,1.2,0,0,0,1.79-.15c1.85-2,3.8-3.88,5.75-5.76a3.62,3.62,0,0,1,1.45-.77c1-.31,1.69-1.42,1.16-2.11-2.28-3-5.62-4.75-8.28-7.29a.43.43,0,0,0-.11-.06c-1.92-.95-3.83-1.91-5.77-2.82a26.26,26.26,0,0,0-3.08-1.22c-.88-.28-1.81-.41-2.71-.62a22.9,22.9,0,0,0-3.74-.85C137.69,63.88,135.31,64,132.94,64ZM59.65,113.35c-1.58-.25-1.7-1.2-1.65-2.29a2.77,2.77,0,0,0-.2-1.08c-.58-1.52-1.23-3-1.8-4.53-.42-1.13-.73-2.31-1.16-3.44-.58-1.56-1.25-3.08-1.84-4.63a41.24,41.24,0,0,1-1.85-5.23c-.3-1.3-1.62-2.25-1.21-3.77.05-.19-.27-.48-.42-.71-.48-.77-1.29-1.49-1.39-2.3-.27-2.24-1.39-4.16-2-6.25-.62-2.3-2.17-4.27-2.21-6.73a1,1,0,0,0-.11-.35c-.46-1.1-.93-2.2-1.39-3.31-.23-.56-.31-1.51-.67-1.63-1-.34-.68-1.09-.77-1.71C41,64.95,41,64.5,40.92,64H26a8.82,8.82,0,0,0,.28,1.28c.57,1.45,1.2,2.88,1.75,4.34.45,1.2.79,2.45,1.24,3.66.38,1,.83,2,1.27,3a14.65,14.65,0,0,1,1.73,4.92c.11,1.38,1.41,2.63,1.65,4,.42,2.37,2.18,4.27,2.16,6.75,0,.14.18.27.24.42.41.91.86,1.81,1.19,2.75.59,1.67.85,3.52,1.72,5s.93,3.2,1.76,4.68a25.19,25.19,0,0,1,1.21,3.41c.58,1.52,1.23,3,1.81,4.52.43,1.13.72,2.31,1.17,3.44.56,1.4,1.51,2.71,1.75,4.14.39,2.36,2.58,4.09,2.17,6.68,0,.15.25.32.33.5A14,14,0,0,1,50,129.1a9.71,9.71,0,0,0,.15,1.09c.68,1.58,1.42,3.13,2.21,4.86,4.25,0,8.66,0,13.06,0A1.71,1.71,0,0,0,67,133.24a4.39,4.39,0,0,1,.27-1.44A34.49,34.49,0,0,0,70,124.11a.59.59,0,0,1,.13-.34c.83-.64.78-1.54.92-2.46a10,10,0,0,1,.94-2.23c.3-.7.57-1.42.87-2.12s.79-1.58,1.08-2.41c.65-1.82,1.2-3.68,1.86-5.5.31-.86.8-1.66,1.14-2.51a26.07,26.07,0,0,0,1-3c.26-1,.1-1.89.88-2.92C80,99.17,80.34,97.1,81,95.28c.48-1.29.92-2.6,1.41-3.88S83.5,88.9,84,87.62c.67-1.86,1.23-3.75,1.9-5.61.28-.79,1-1.5,1-2.28a10.12,10.12,0,0,1,1-3.11c.4-.94.24-2,1-3a26.12,26.12,0,0,0,2.42-6c.39-1.11.59-2.29.92-3.64-4.89,0-9.42,0-14,0a1,1,0,0,0-.71.55q-1.12,2.93-2.14,5.9c-.83,2.4-1.63,4.81-2.45,7.22-.06.19-.21.35-.29.53-.39.87-.85,1.73-1.16,2.63-.58,1.68-1.08,3.39-1.61,5.09,0,0-.06.06-.07.1a19.86,19.86,0,0,0-1.76,4.2c-.42,2.34-2,4.23-2.23,6.65-.15,1.41-1.13,2.72-1.67,4.11a24.73,24.73,0,0,1-1.22,3.4,8.24,8.24,0,0,0-1.07,4.32.26.26,0,0,1-.15.18c-1.05.35-1,1.36-1.24,2.15S59.93,112.59,59.65,113.35ZM130.34,95a9.46,9.46,0,0,1-.67,1.16,12.75,12.75,0,0,1-1,1c-.67.69-1.12,3.36-.51,4.06a5.17,5.17,0,0,0,2.27,1.73,8.6,8.6,0,0,0,3.71,0c.67-.14,1.66-.93,1.71-1.5.17-1.75.76-3.77-1-5.11-.72-.56-1.29-1.62-2.57-1.33A9,9,0,0,1,130.34,95Zm32.48,8c.16-.52.15-1.06.41-1.26a2.41,2.41,0,0,0,.74-2.61A13.26,13.26,0,0,0,163,97a3.09,3.09,0,0,0-2.6-2,3.36,3.36,0,0,0-3.15,1.12c-.58.67-1.4,1.27-1.37,2.55a7.09,7.09,0,0,0,1.43,4.33Zm-14,0c.19-.56.2-1.08.46-1.3.74-.63.67-1.42.79-2.24.16-1.11-.64-1.72-1-2.54-.5-1.05-1.14-1.93-2.42-1.83-1,.07-2-.37-2.9.85a7.24,7.24,0,0,0-1.77,3.32c-.23,1.53.75,2.51,1.31,3.75Z"/><path class="cls-3" d="M132.94,64c2.37,0,4.75-.1,7.12,0a22.9,22.9,0,0,1,3.74.85c.9.21,1.83.34,2.71.62a26.26,26.26,0,0,1,3.08,1.22c1.94.91,3.85,1.88,5.77,2.82a.43.43,0,0,1,.11.06c2.67,2.54,6,4.32,8.28,7.29.53.69-.14,1.8-1.16,2.11a3.62,3.62,0,0,0-1.45.77c-2,1.89-3.9,3.78-5.75,5.76a1.2,1.2,0,0,1-1.79.15,1.9,1.9,0,0,1-.53-.52c-1.55-2.2-4-3.29-6.06-4.91-1.15-.92-2.81-1.23-4.26-1.76-1.16-.43-2.35-.78-3.54-1.17a4.13,4.13,0,0,0-1.15-.32c-2.75,0-5.5-.15-8.24,0a20.26,20.26,0,0,0-5,1.09A23.41,23.41,0,0,0,120.94,80a25.78,25.78,0,0,0-3,1.9,14.07,14.07,0,0,0-1.74,1.71c-.58.61-1.42,1.07-1.3,2.13,0,.15-.21.34-.35.49-2,2-2.52,4.77-3.68,7.22-1.36,2.87-.64,5.77-.85,8.66,0,.3.33.62.5.93s.35.48.33.7c-.17,2.44,1.26,4.49,1.64,6.79a.35.35,0,0,0,0,.12,21.43,21.43,0,0,0,6.11,7,22.12,22.12,0,0,0,6.88,3.49,35.8,35.8,0,0,0,6.74.95,59.26,59.26,0,0,0,6.26-.13,14.38,14.38,0,0,0,4.38-1,28.46,28.46,0,0,0,2.74-1.66,7.6,7.6,0,0,0,2.26-1.2c.81-.79,1.94-1.24,2.83-2a26.49,26.49,0,0,0,2.56-2.53c.66-.71,1.27-.87,2-.13,2.59,2.6,5.21,5.16,7.74,7.81a1.62,1.62,0,0,1,.08,1.58,20.45,20.45,0,0,1-3.28,3.17,53.16,53.16,0,0,0-4.82,3.72c-.75.69-2,.82-2.93,1.33a12.1,12.1,0,0,1-2.39,1.19,17.19,17.19,0,0,0-4.39,1.81c-2.13,1.36-4.44.77-6.67,1-.16,0-.44,0-.47.08-.5,1.28-1.59.7-2.43.75-1.58.08-3.17.07-4.75,0-.77,0-1.63.39-2.26-.69-.22-.38-1.49-.08-2.27-.21s-1.6-.45-2.41-.65a12.15,12.15,0,0,0-1.68-.29,12.58,12.58,0,0,1-5.32-1.78c-.91-.54-2-.8-2.93-1.28a12.25,12.25,0,0,1-3-1.75c-2.76-2.6-5.47-5.26-8-8a17.76,17.76,0,0,1-2.15-3.8A14.93,14.93,0,0,0,99.77,115a6.44,6.44,0,0,1-1.29-3.83c-.08-1.17,0-2.56-.64-3.43-1.5-2.11-.67-4.37-.83-6.54a43.22,43.22,0,0,1,0-7A28.26,28.26,0,0,1,98.17,89c.53-1.85,1.2-3.67,1.86-5.48A7.6,7.6,0,0,1,100.9,82c.06-.09.29-.13.28-.19-.06-1.93,2.22-2.53,2.46-4.41.1-.8,1.27-1.46,2-2.17,1.24-1.25,2.44-2.55,3.77-3.71.74-.64,1.77-.94,2.52-1.57a11.68,11.68,0,0,1,3.94-2.06,18.13,18.13,0,0,0,2.67-1.54,10.23,10.23,0,0,1,2-.85c1.17-.34,2.43-.4,3.38-1.34.18-.18.63-.13,1-.13h8.12Z"/><path class="cls-4" d="M59.65,113.35c.27-.76.56-1.55.84-2.35s.19-1.8,1.24-2.15a.26.26,0,0,0,.15-.18,8.24,8.24,0,0,1,1.07-4.32,24.73,24.73,0,0,0,1.22-3.4c.54-1.38,1.52-2.7,1.67-4.11.25-2.42,1.82-4.3,2.23-6.65A19.86,19.86,0,0,1,69.83,86s.06-.06.07-.1c.53-1.7,1-3.41,1.61-5.09.31-.9.76-1.76,1.16-2.63.08-.18.23-.34.29-.53.82-2.4,1.61-4.82,2.45-7.22q1-3,2.14-5.9a1,1,0,0,1,.71-.55c4.53,0,9.06,0,14,0-.33,1.35-.54,2.53-.92,3.64a26.12,26.12,0,0,1-2.42,6c-.71,1.06-.55,2.07-1,3a10.12,10.12,0,0,0-1,3.11c-.07.78-.75,1.49-1,2.28-.67,1.86-1.23,3.75-1.9,5.61-.46,1.28-1.05,2.51-1.54,3.78S81.49,94,81,95.28c-.68,1.83-1,3.89-2.16,5.38-.78,1-.63,1.94-.88,2.92a26.07,26.07,0,0,1-1,3c-.34.85-.83,1.65-1.14,2.51-.65,1.82-1.21,3.68-1.86,5.5-.29.83-.73,1.6-1.08,2.41s-.57,1.42-.87,2.12a10,10,0,0,0-.94,2.23c-.14.91-.09,1.82-.92,2.46a.59.59,0,0,0-.13.34,34.49,34.49,0,0,1-2.76,7.69,4.39,4.39,0,0,0-.27,1.44A1.71,1.71,0,0,1,65.42,135c-4.41.08-8.82,0-13.06,0-.79-1.72-1.52-3.28-2.21-4.86A9.71,9.71,0,0,1,50,129.1a14,14,0,0,0-.59-1.55c-.08-.18-.36-.36-.33-.5.41-2.58-1.78-4.32-2.17-6.68-.24-1.44-1.2-2.75-1.75-4.14-.45-1.12-.74-2.3-1.17-3.44-.57-1.52-1.23-3-1.81-4.52A25.19,25.19,0,0,0,41,104.86c-.83-1.48-.88-3.19-1.76-4.68s-1.13-3.34-1.72-5c-.33-.94-.79-1.83-1.19-2.75-.07-.15-.25-.28-.24-.42,0-2.48-1.74-4.38-2.16-6.75-.25-1.4-1.54-2.65-1.65-4a14.65,14.65,0,0,0-1.73-4.92c-.44-1-.9-2-1.27-3-.45-1.21-.79-2.46-1.24-3.66-.55-1.46-1.18-2.89-1.75-4.34A8.82,8.82,0,0,1,26,64h15c0,.46,0,.9.11,1.34.09.62-.27,1.37.77,1.71.36.12.44,1.07.67,1.63.45,1.11.93,2.21,1.39,3.31a1,1,0,0,1,.11.35c0,2.46,1.59,4.44,2.21,6.73.56,2.09,1.68,4,2,6.25.1.81.91,1.54,1.39,2.3.15.24.47.53.42.71-.42,1.52.91,2.47,1.21,3.77A41.24,41.24,0,0,0,53,97.39c.59,1.55,1.26,3.08,1.84,4.63.43,1.13.74,2.31,1.16,3.44.57,1.52,1.21,3,1.8,4.53a2.77,2.77,0,0,1,.2,1.08C58,112.15,58.07,113.1,59.65,113.35Z"/><path class="cls-4" d="M130.34,95a9,9,0,0,0,2,0c1.28-.29,1.84.77,2.57,1.33,1.73,1.34,1.14,3.36,1,5.11-.06.57-1,1.36-1.71,1.5a8.6,8.6,0,0,1-3.71,0,5.17,5.17,0,0,1-2.27-1.73c-.61-.69-.17-3.37.51-4.06a12.75,12.75,0,0,0,1-1A9.46,9.46,0,0,0,130.34,95Z"/><path class="cls-4" d="M162.82,103h-5.49a7.09,7.09,0,0,1-1.43-4.33c0-1.28.79-1.88,1.37-2.55A3.36,3.36,0,0,1,160.42,95a3.09,3.09,0,0,1,2.6,2,13.26,13.26,0,0,1,.93,2.17,2.41,2.41,0,0,1-.74,2.61C163,101.93,163,102.47,162.82,103Z"/><path class="cls-4" d="M148.81,103h-5.55c-.57-1.24-1.54-2.21-1.31-3.75a7.24,7.24,0,0,1,1.77-3.32c.91-1.22,1.91-.78,2.9-.85,1.28-.09,1.93.78,2.42,1.83.39.83,1.18,1.43,1,2.54-.12.83-.05,1.62-.79,2.24C149,101.9,149,102.41,148.81,103Z"/></g></g></svg>