<svg id="Layer_1" data-name="Layer 1" xmlns="http://www.w3.org/2000/svg" xmlns:xlink="http://www.w3.org/1999/xlink" viewBox="0 0 750 1334"><defs><style>.cls-1{fill:#8bc34a;}.cls-2{fill:#fff;}.cls-3{clip-path:url(#clip-path);}.cls-4{opacity:0.2;}</style><clipPath id="clip-path"><path id="_Clipping_Path_" data-name="&lt;Clipping Path&gt;" class="cls-1" d="M749.16,0c-29,35.41-56,70.95-81.09,112.26-6.14,11.05-16.39,19.09-22.53,30.14C568.74,275,509.34,412.67,507.3,564.39c-1,49.23-47.11,80.38-78.85,118.56-7.17,9-14.34,17.08-21.51,27.13-10.24,13.06-23.55,22.1-34.82,35.17v-2c-42,28.13-65.54,78.37-72.71,127.6-7.17,47.22,3.07,91.43,16.39,136.64,2,6,3.07,14.07,0,20.09-5.12,12.06,0,26.12-9.22,37.17-24.58,27.13-60.42,36.17-90.12,58.27-39.94,32.15-59.4,79.37-68.61,127.6-1,4-7.17,2-6.14,7-3.07,0-7.17-1-8.19,1-4.1,5-9.22,4-12.29,6C77.19,1280.75,27,1290.8.38,1333a6.34,6.34,0,0,1-.38,1H555.88a178.68,178.68,0,0,1,19-28.13c43.63-52.54,112.23-46.66,175.12-49V1.2A14.55,14.55,0,0,1,749.16,0Z"/></clipPath></defs><title>Artboard 1</title><rect id="_Rectangle_" data-name="&lt;Rectangle&gt;" class="cls-2" width="750" height="1334"/><path id="_Clipping_Path_2" data-name="&lt;Clipping Path&gt;" class="cls-1" d="M749.16,0c-29,35.41-56,70.95-81.09,112.26-6.14,11.05-16.39,19.09-22.53,30.14C568.74,275,509.34,412.67,507.3,564.39c-1,49.23-47.11,80.38-78.85,118.56-7.17,9-14.34,17.08-21.51,27.13-10.24,13.06-23.55,22.1-34.82,35.17v-2c-42,28.13-65.54,78.37-72.71,127.6-7.17,47.22,3.07,91.43,16.39,136.64,2,6,3.07,14.07,0,20.09-5.12,12.06,0,26.12-9.22,37.17-24.58,27.13-60.42,36.17-90.12,58.27-39.94,32.15-59.4,79.37-68.61,127.6-1,4-7.17,2-6.14,7-3.07,0-7.17-1-8.19,1-4.1,5-9.22,4-12.29,6C77.19,1280.75,27,1290.8.38,1333a6.34,6.34,0,0,1-.38,1H555.88a178.68,178.68,0,0,1,19-28.13c43.63-52.54,112.23-46.66,175.12-49V1.2A14.55,14.55,0,0,1,749.16,0Z"/><g class="cls-3"><image class="cls-4" width="7360" height="4912" transform="translate(-444 204) scale(0.22 0.21)" xlink:href="../../569445-PLF0TM-716.jpg"/></g></svg>