<svg xmlns="http://www.w3.org/2000/svg" viewBox="0 0 217.02 46.99"><defs><style>.cls-1{fill:#0edef6;}.cls-2{fill:#19e0f6;}.cls-3{fill:#b0f4fb;}.cls-4{fill:#a1d554;}.cls-5{fill:#16dff6;}.cls-6{fill:#a1d455;}.cls-7{fill:#a1d454;}.cls-8{fill:#0ddef6;}</style></defs><title>logovatchit</title><g id="Layer_2" data-name="Layer 2"><g id="Layer_1-2" data-name="Layer 1"><path class="cls-1" d="M217,20.57l-4.87-.43v25.8h-8.5c0-7.12,0-14.24,0-21.37,0-2.06.78-4.39-2.76-5-.92-.16-1.3-3.51-1.93-5.41,8.26-2.15,2.94-8.49,5.39-12.74H212A74.93,74.93,0,0,1,212,9.22c-.33,3.22,1,4.39,4,4.11l1,5.18Z"/><path class="cls-2" d="M191.3,0c.62.5,1.28,1,1.86,1.51,2.56,2.42,2.93,5.45.11,7.34a7.11,7.11,0,0,1-6.59-.21c-2.77-2.08-2-5.06.54-7.34a15.69,15.69,0,0,1,2-1.31Z"/><path class="cls-3" d="M217,18.51l-1-5.18,1-1Z"/><path class="cls-4" d="M71.41,13.56v33c-2.94-.46-5.73-1-8.53-1.29a7.91,7.91,0,0,0-3.53.41c-7.14,2.71-13.6.95-18.19-5.08-4.74-6.23-4.42-16.61.72-22.94,4.26-5.24,10.88-6.61,17.62-3.92,1.18.47,2.77-.12,4.17-.14C66.17,13.54,68.65,13.56,71.41,13.56ZM49.62,37.69l11.69-8.14-11.69-8Z"/><path class="cls-5" d="M140.57,10.18l-6.24,4.88c-4.22-3.7-9.8-6.82-16.42-4.7a18.11,18.11,0,0,0-7.8,5.36c-4.39,5.15-3.64,13.41,1.06,18.31,5.68,5.92,13.44,5.55,23.58-1.13l5.53,4.91c-8,10.77-24.47,12.27-34.37,3.49C96.72,33.14,96.25,16.65,105,8,114.78-1.83,130.91-1.1,140.57,10.18Z"/><path class="cls-2" d="M148.87,1.16h8.07V14.71c.86.18,1.25.4,1.48.29,12.61-5.92,19.52-1.62,19.53,12.18,0,6.14,0,12.28,0,18.77h-8.42c0-4.18,0-8.4,0-12.61a30.72,30.72,0,0,0,0-4.62c-.55-3.57.07-8.07-5.38-8.44-3.93-.27-6.65,3.11-6.8,8.59s0,11.23,0,17.13h-8.39Z"/><path class="cls-6" d="M20.14,30.92c2.8-7.6,5.59-15.2,8.41-22.79,2.61-7,2.63-7,11-5.54-2.92,8.08-5.8,16.07-8.7,24.05C28.84,32.26,27,38,24.58,43.42c-.59,1.35-2.91,2.64-4.47,2.68-1.83,0-4.87-.85-5.36-2.12C9.6,30.59,4.86,17,0,3.51c-.1-.28.09-.66.14-1C7.92,1,7.93,1,10.55,8.07Q14.79,19.47,19,30.89Z"/><path class="cls-7" d="M80.21,1.14h7.38c3.36,3.76-3,11.3,5.25,12.79,1.13,3.8.59,6.55-4.24,6.84V45.91H80.38V21l-1.46.58c-1.17-1.77-3.06-3.46-3.26-5.34-.14-1.28,2.09-2.8,3.26-4.22l1.28.64Z"/><path class="cls-8" d="M186.38,13.43H194V45.91h-7.66Z"/><polygon class="cls-4" points="57.74 29.71 51.63 25.46 51.63 33.96 57.74 29.71"/><circle class="cls-5" cx="122.03" cy="23.52" r="3.5"/><circle class="cls-5" cx="131.3" cy="23.52" r="3.5"/><circle class="cls-5" cx="140.57" cy="23.58" r="3.5"/></g></g></svg>